<?xml version="1.0" encoding="UTF-8" standalone="no"?>
<svg
   xmlns:dc="http://purl.org/dc/elements/1.1/"
   xmlns:cc="http://creativecommons.org/ns#"
   xmlns:rdf="http://www.w3.org/1999/02/22-rdf-syntax-ns#"
   xmlns:svg="http://www.w3.org/2000/svg"
   xmlns="http://www.w3.org/2000/svg"
   xmlns:sodipodi="http://sodipodi.sourceforge.net/DTD/sodipodi-0.dtd"
   xmlns:inkscape="http://www.inkscape.org/namespaces/inkscape"
   enable-background="new 0 0 128 128"
   id="Layer_1"
   version="1.1"
   viewBox="0 0 24 24"
   xml:space="preserve"
   sodipodi:docname="archive.svg"
   inkscape:version="0.92.3 (2405546, 2018-03-11)"
   width="24"
   height="24"><metadata
     id="metadata11"><rdf:RDF><cc:Work
         rdf:about=""><dc:format>image/svg+xml</dc:format><dc:type
           rdf:resource="http://purl.org/dc/dcmitype/StillImage" /><dc:title></dc:title></cc:Work></rdf:RDF></metadata><defs
     id="defs9" /><sodipodi:namedview
     pagecolor="#ffffff"
     bordercolor="#666666"
     borderopacity="1"
     objecttolerance="10"
     gridtolerance="10"
     guidetolerance="10"
     inkscape:pageopacity="0"
     inkscape:pageshadow="2"
     inkscape:window-width="1243"
     inkscape:window-height="684"
     id="namedview7"
     showgrid="false"
     inkscape:zoom="10.429825"
     inkscape:cx="26.154597"
     inkscape:cy="10.540877"
     inkscape:window-x="751"
     inkscape:window-y="151"
     inkscape:window-maximized="0"
     inkscape:current-layer="icon" /><g
     id="icon"
     transform="translate(0,-104)"><path
       style="fill:#ffffff;stroke-width:0.1875"
       d="M 12,104 A 12,12 0 0 0 0,116 12,12 0 0 0 12,128 12,12 0 0 0 24,116 12,12 0 0 0 12,104 Z m -5.8125,6.5625 h 3 c 0.4125,0 0.75,0.3375 0.75,0.75 v 0.75 h 7.875 c 0.4125,0 0.75,0.3375 0.75,0.75 v 0.75 7.125 c 0,0.4125 -0.3375,0.75 -0.75,0.75 H 6.1875 c -0.4125,0 -0.75,-0.3375 -0.75,-0.75 v -7.125 -0.75 -0.75 -0.75 c 0,-0.4125 0.3375,-0.75 0.75,-0.75 z"
       id="circle"
       inkscape:connector-curvature="0" /></g></svg>