<?xml version="1.0" encoding="UTF-8" standalone="no"?><svg xmlns:dc="http://purl.org/dc/elements/1.1/" xmlns:cc="http://creativecommons.org/ns#" xmlns:rdf="http://www.w3.org/1999/02/22-rdf-syntax-ns#" xmlns:svg="http://www.w3.org/2000/svg" xmlns="http://www.w3.org/2000/svg" xmlns:sodipodi="http://sodipodi.sourceforge.net/DTD/sodipodi-0.dtd" xmlns:inkscape="http://www.inkscape.org/namespaces/inkscape" role="img" viewBox="0 0 24 24" version="1.1" id="svg5" sodipodi:docname="dribbble.svg" inkscape:version="0.92.3 (2405546, 2018-03-11)"> <metadata id="metadata11"> <rdf:RDF> <cc:Work rdf:about=""> <dc:format>image/svg+xml</dc:format> <dc:type rdf:resource="http://purl.org/dc/dcmitype/StillImage" /> </cc:Work> </rdf:RDF> </metadata> <defs id="defs9" /> <sodipodi:namedview pagecolor="#ffffff" bordercolor="#666666" borderopacity="1" objecttolerance="10" gridtolerance="10" guidetolerance="10" inkscape:pageopacity="0" inkscape:pageshadow="2" inkscape:window-width="640" inkscape:window-height="480" id="namedview7" showgrid="false" inkscape:zoom="9.8333333" inkscape:cx="12" inkscape:cy="12" inkscape:window-x="32" inkscape:window-y="0" inkscape:window-maximized="0" inkscape:current-layer="svg5" /> <path d="M12 24C5.385 24 0 18.615 0 12S5.385 0 12 0s12 5.385 12 12-5.385 12-12 12zm10.12-10.358c-.35-.11-3.17-.953-6.384-.438 1.34 3.684 1.887 6.684 1.992 7.308 2.3-1.555 3.936-4.02 4.395-6.87zm-6.115 7.808c-.153-.9-.75-4.032-2.19-7.77l-.066.02c-5.79 2.015-7.86 6.025-8.04 6.4 1.73 1.358 3.92 2.166 6.29 2.166 1.42 0 2.77-.29 4-.814zm-11.62-2.58c.232-.4 3.045-5.055 8.332-6.765.135-.045.27-.084.405-.12-.26-.585-.54-1.167-.832-1.74C7.17 11.775 2.206 11.71 1.756 11.7l-.004.312c0 2.633.998 5.037 2.634 6.855zm-2.42-8.955c.46.008 4.683.026 9.477-1.248-1.698-3.018-3.53-5.558-3.8-5.928-2.868 1.35-5.01 3.99-5.676 7.17zM9.6 2.052c.282.38 2.145 2.914 3.822 6 3.645-1.365 5.19-3.44 5.373-3.702-1.81-1.61-4.19-2.586-6.795-2.586-.825 0-1.63.1-2.4.285zm10.335 3.483c-.218.29-1.935 2.493-5.724 4.04.24.49.47.985.68 1.486.08.18.15.36.22.53 3.41-.43 6.8.26 7.14.33-.02-2.42-.88-4.64-2.31-6.38z" id="path3" style="fill:#ffffff" /></svg>