<?xml version="1.0" encoding="UTF-8" standalone="no"?><svg xmlns:dc="http://purl.org/dc/elements/1.1/" xmlns:cc="http://creativecommons.org/ns#" xmlns:rdf="http://www.w3.org/1999/02/22-rdf-syntax-ns#" xmlns:svg="http://www.w3.org/2000/svg" xmlns="http://www.w3.org/2000/svg" xmlns:sodipodi="http://sodipodi.sourceforge.net/DTD/sodipodi-0.dtd" xmlns:inkscape="http://www.inkscape.org/namespaces/inkscape" version="1.1" viewBox="0 0 24 24" xml:space="preserve" id="svg18" sodipodi:docname="home.svg" inkscape:version="0.92.3 (2405546, 2018-03-11)" width="24" height="24"><metadata id="metadata24"><rdf:RDF><cc:Work rdf:about=""><dc:format>image/svg+xml</dc:format><dc:type rdf:resource="http://purl.org/dc/dcmitype/StillImage" /><dc:title></dc:title></cc:Work></rdf:RDF></metadata><defs id="defs22" /><sodipodi:namedview pagecolor="#00ffff" bordercolor="#666666" borderopacity="1" objecttolerance="10" gridtolerance="10" guidetolerance="10" inkscape:pageopacity="0" inkscape:pageshadow="2" inkscape:window-width="2528" inkscape:window-height="1052" id="namedview20" showgrid="false" inkscape:zoom="5.2149125" inkscape:cx="14.617133" inkscape:cy="59.812046" inkscape:window-x="32" inkscape:window-y="0" inkscape:window-maximized="1" inkscape:current-layer="g14" /><g id="home" transform="translate(0,-488)"><g id="g14"><path style="fill:#ffffff;stroke-width:0.04734859" d="M 12,488 A 12.000026,12.000026 0 0 0 -4.9999999e-8,500 12.000026,12.000026 0 0 0 12,512 12.000026,12.000026 0 0 0 24,500 12.000026,12.000026 0 0 0 12,488 Z m 0,6.38485 c 0.09607,0 0.192115,0.0367 0.265411,0.10995 l 5.341698,5.3417 c 0.237358,0.23736 0.06765,0.64305 -0.268001,0.64078 l -0.868458,-0.006 v 4.26637 c 4.7e-5,0.31425 -0.254718,0.56901 -0.568923,0.56901 h -2.214009 v -3.26696 c 4.7e-5,-0.44143 -0.357808,-0.79928 -0.799192,-0.79928 h -1.777052 c -0.441431,0 -0.799192,0.35785 -0.799192,0.79928 v 3.26696 H 8.0982731 c -0.314253,0 -0.569015,-0.25476 -0.569016,-0.56901 v -4.32676 l -0.8016889,-0.005 c -0.333192,-0.002 -0.4984282,-0.40526 -0.2628216,-0.64087 l 5.2698424,-5.26984 c 0.0733,-0.0733 0.169341,-0.10995 0.265411,-0.10995 z" id="circle2" inkscape:connector-curvature="0" /><path d="m 184.69,283.819 c 0.05,0.049 0.089,0.099 0.139,0.148 -0.05,0.029 -0.089,0.049 -0.139,0.079 -0.049,-0.05 -0.089,-0.099 -0.139,-0.149 0.05,-0.018 0.09,-0.048 0.139,-0.078 z" style="fill:#ffffff" id="path4" inkscape:connector-curvature="0" /><path d="m 327.478,283.859 c -0.049,0.059 -0.109,0.129 -0.168,0.188 -0.059,-0.04 -0.119,-0.07 -0.178,-0.099 0.059,-0.059 0.119,-0.129 0.178,-0.188 0.059,0.029 0.109,0.069 0.168,0.099 z" style="fill:#ffffff" id="path6" inkscape:connector-curvature="0" /><g id="g56" /></g></g><g id="Layer_1" transform="translate(0,-488)" /></svg>