<?xml version="1.0" encoding="UTF-8" standalone="no"?>
<svg
   xmlns:dc="http://purl.org/dc/elements/1.1/"
   xmlns:cc="http://creativecommons.org/ns#"
   xmlns:rdf="http://www.w3.org/1999/02/22-rdf-syntax-ns#"
   xmlns:svg="http://www.w3.org/2000/svg"
   xmlns="http://www.w3.org/2000/svg"
   xmlns:sodipodi="http://sodipodi.sourceforge.net/DTD/sodipodi-0.dtd"
   xmlns:inkscape="http://www.inkscape.org/namespaces/inkscape"
   height="24"
   id="Layer_1"
   version="1.1"
   viewBox="0 0 24 24"
   width="24"
   xml:space="preserve"
   sodipodi:docname="linkedin.svg"
   inkscape:version="0.92.5 (2060ec1f9f, 2020-04-08)"><metadata
     id="metadata9"><rdf:RDF><cc:Work
         rdf:about=""><dc:format>image/svg+xml</dc:format><dc:type
           rdf:resource="http://purl.org/dc/dcmitype/StillImage" /><dc:title></dc:title></cc:Work></rdf:RDF></metadata><defs
     id="defs7" /><sodipodi:namedview
     pagecolor="#ffffff"
     bordercolor="#666666"
     borderopacity="1"
     objecttolerance="10"
     gridtolerance="10"
     guidetolerance="10"
     inkscape:pageopacity="0"
     inkscape:pageshadow="2"
     inkscape:window-width="1503"
     inkscape:window-height="819"
     id="namedview5"
     showgrid="false"
     inkscape:zoom="9.9628179"
     inkscape:cx="21.739113"
     inkscape:cy="-3.2064531"
     inkscape:window-x="0"
     inkscape:window-y="27"
     inkscape:window-maximized="0"
     inkscape:current-layer="Layer_1"
     inkscape:pagecheckerboard="true" /><path
     d="m 18.606501,17.544928 v -4.545177 c 0,-2.435194 -1.300062,-3.5683814 -3.033221,-3.5683814 -1.398635,0 -2.025383,0.7695594 -2.374654,1.3093754 V 9.6176475 h -2.635053 c 0.03493,0.7439455 0,7.9272805 0,7.9272805 h 2.635053 v -4.427201 c 0,-0.236341 0.01708,-0.473068 0.08693,-0.642269 0.190158,-0.473457 0.623642,-0.9636 1.351289,-0.9636 0.953896,0 1.33499,0.726871 1.33499,1.792146 v 4.241312 H 18.6065 Z M 7.7876473,8.5356834 c 0.918582,0 1.4909981,-0.6092829 1.4909981,-1.3703051 C 9.2615689,6.388057 8.7062293,5.7962371 7.8051108,5.7962371 c -0.9011187,0 -1.49061,0.5914318 -1.49061,1.3691412 0,0.7610222 0.5720278,1.3703051 1.4564591,1.3703051 z M 12.072423,23.701018 c -6.4296863,0 -11.64235781,-5.212671 -11.64235781,-11.642357 0,-6.4300739 5.21267151,-11.64235726 11.64235781,-11.64235726 6.429686,0 11.642357,5.21228336 11.642357,11.64235726 0,6.429686 -5.212671,11.642357 -11.642357,11.642357 z M 9.1051737,17.544928 V 9.6176475 H 6.4705083 v 7.9272805 z"
     style="clip-rule:evenodd;fill:#ffffff;fill-rule:evenodd;stroke-width:0.38807857"
     id="path2"
     inkscape:connector-curvature="0" /></svg>