<?xml version="1.0" encoding="UTF-8" standalone="no"?>
<svg
   xmlns:dc="http://purl.org/dc/elements/1.1/"
   xmlns:cc="http://creativecommons.org/ns#"
   xmlns:rdf="http://www.w3.org/1999/02/22-rdf-syntax-ns#"
   xmlns:svg="http://www.w3.org/2000/svg"
   xmlns="http://www.w3.org/2000/svg"
   xmlns:sodipodi="http://sodipodi.sourceforge.net/DTD/sodipodi-0.dtd"
   xmlns:inkscape="http://www.inkscape.org/namespaces/inkscape"
   role="img"
   viewBox="0 0 24 24"
   version="1.1"
   id="svg5"
   sodipodi:docname="xing.svg"
   inkscape:version="0.92.3 (2405546, 2018-03-11)">
  <metadata
     id="metadata11">
    <rdf:RDF>
      <cc:Work
         rdf:about="">
        <dc:format>image/svg+xml</dc:format>
        <dc:type
           rdf:resource="http://purl.org/dc/dcmitype/StillImage" />
      </cc:Work>
    </rdf:RDF>
  </metadata>
  <defs
     id="defs9" />
  <sodipodi:namedview
     pagecolor="#ffffff"
     bordercolor="#666666"
     borderopacity="1"
     objecttolerance="10"
     gridtolerance="10"
     guidetolerance="10"
     inkscape:pageopacity="0"
     inkscape:pageshadow="2"
     inkscape:window-width="640"
     inkscape:window-height="480"
     id="namedview7"
     showgrid="false"
     inkscape:zoom="9.8333333"
     inkscape:cx="12"
     inkscape:cy="12"
     inkscape:window-x="32"
     inkscape:window-y="0"
     inkscape:window-maximized="0"
     inkscape:current-layer="svg5" />
  <path
     d="M18.188 0c-.517 0-.741.325-.927.66 0 0-7.455 13.224-7.702 13.657.015.024 4.919 9.023 4.919 9.023.17.308.436.66.967.66h3.454c.211 0 .375-.078.463-.22.089-.151.089-.346-.009-.536l-4.879-8.916c-.004-.006-.004-.016 0-.022L22.139.756c.095-.191.097-.387.006-.535C22.056.078 21.894 0 21.686 0h-3.498zM3.648 4.74c-.211 0-.385.074-.473.216-.09.149-.078.339.02.531l2.34 4.05c.004.01.004.016 0 .021L1.86 16.051c-.099.188-.093.381 0 .529.085.142.239.234.45.234h3.461c.518 0 .766-.348.945-.667l3.734-6.609-2.378-4.155c-.172-.315-.434-.659-.962-.659H3.648v.016z"
     id="path3"
     style="fill:#ffffff" />
</svg>
